<mxfile host="app.diagrams.net" modified="2021-08-01T11:33:40.392Z" agent="5.0 (Macintosh; Intel Mac OS X 10_15_3) AppleWebKit/605.1.15 (KHTML, like Gecko) Version/13.0.5 Safari/605.1.15" etag="UZOXBcSsCrLmL0LAu5bh" version="14.9.3" type="github">
  <diagram id="R2lEEEUBdFMjLlhIrx00" name="Page-1">
    <mxGraphModel dx="976" dy="671" grid="1" gridSize="10" guides="1" tooltips="1" connect="1" arrows="1" fold="1" page="1" pageScale="1" pageWidth="850" pageHeight="1100" math="0" shadow="0" extFonts="Permanent Marker^https://fonts.googleapis.com/css?family=Permanent+Marker">
      <root>
        <mxCell id="0" />
        <mxCell id="1" parent="0" />
        <mxCell id="wj8l2izo7W9BaoT4w8Zf-1" value="User" style="whiteSpace=wrap;html=1;align=center;" parent="1" vertex="1">
          <mxGeometry x="200" y="560" width="100" height="40" as="geometry" />
        </mxCell>
        <mxCell id="wj8l2izo7W9BaoT4w8Zf-2" value="Post" style="whiteSpace=wrap;html=1;align=center;" parent="1" vertex="1">
          <mxGeometry x="210" y="830" width="100" height="30" as="geometry" />
        </mxCell>
        <mxCell id="wj8l2izo7W9BaoT4w8Zf-3" value="comment" style="whiteSpace=wrap;html=1;align=center;" parent="1" vertex="1">
          <mxGeometry x="510" y="715" width="100" height="50" as="geometry" />
        </mxCell>
        <mxCell id="wj8l2izo7W9BaoT4w8Zf-4" value="picture" style="whiteSpace=wrap;html=1;align=center;" parent="1" vertex="1">
          <mxGeometry x="570" y="1030" width="100" height="40" as="geometry" />
        </mxCell>
        <mxCell id="wj8l2izo7W9BaoT4w8Zf-6" value="name" style="ellipse;whiteSpace=wrap;html=1;align=center;" parent="1" vertex="1">
          <mxGeometry x="30" y="640" width="100" height="40" as="geometry" />
        </mxCell>
        <mxCell id="wj8l2izo7W9BaoT4w8Zf-7" value="email" style="ellipse;whiteSpace=wrap;html=1;align=center;" parent="1" vertex="1">
          <mxGeometry x="30" y="560" width="100" height="40" as="geometry" />
        </mxCell>
        <mxCell id="wj8l2izo7W9BaoT4w8Zf-8" value="user_id" style="ellipse;whiteSpace=wrap;html=1;align=center;fontStyle=4;" parent="1" vertex="1">
          <mxGeometry x="30" y="485" width="100" height="40" as="geometry" />
        </mxCell>
        <mxCell id="wj8l2izo7W9BaoT4w8Zf-17" value="" style="endArrow=none;html=1;rounded=0;" parent="1" edge="1">
          <mxGeometry relative="1" as="geometry">
            <mxPoint x="130" y="660" as="sourcePoint" />
            <mxPoint x="200" y="580" as="targetPoint" />
          </mxGeometry>
        </mxCell>
        <mxCell id="wj8l2izo7W9BaoT4w8Zf-18" value="" style="endArrow=none;html=1;rounded=0;entryX=0;entryY=0.5;entryDx=0;entryDy=0;" parent="1" target="wj8l2izo7W9BaoT4w8Zf-1" edge="1">
          <mxGeometry relative="1" as="geometry">
            <mxPoint x="130" y="510" as="sourcePoint" />
            <mxPoint x="200" y="440" as="targetPoint" />
          </mxGeometry>
        </mxCell>
        <mxCell id="wj8l2izo7W9BaoT4w8Zf-20" value="" style="endArrow=none;html=1;rounded=0;entryX=0;entryY=0.5;entryDx=0;entryDy=0;" parent="1" target="wj8l2izo7W9BaoT4w8Zf-1" edge="1">
          <mxGeometry relative="1" as="geometry">
            <mxPoint x="130" y="585" as="sourcePoint" />
            <mxPoint x="200" y="515" as="targetPoint" />
          </mxGeometry>
        </mxCell>
        <mxCell id="wj8l2izo7W9BaoT4w8Zf-23" value="Post_deatail" style="shape=ext;margin=3;double=1;whiteSpace=wrap;html=1;align=center;" parent="1" vertex="1">
          <mxGeometry x="170" y="1150" width="100" height="40" as="geometry" />
        </mxCell>
        <mxCell id="wj8l2izo7W9BaoT4w8Zf-25" value="description" style="ellipse;whiteSpace=wrap;html=1;align=center;" parent="1" vertex="1">
          <mxGeometry x="700" y="770" width="100" height="40" as="geometry" />
        </mxCell>
        <mxCell id="wj8l2izo7W9BaoT4w8Zf-26" value="post_id" style="ellipse;whiteSpace=wrap;html=1;align=center;" parent="1" vertex="1">
          <mxGeometry x="700" y="715" width="100" height="40" as="geometry" />
        </mxCell>
        <mxCell id="wj8l2izo7W9BaoT4w8Zf-27" value="user_id" style="ellipse;whiteSpace=wrap;html=1;align=center;" parent="1" vertex="1">
          <mxGeometry x="700" y="660" width="100" height="40" as="geometry" />
        </mxCell>
        <mxCell id="wj8l2izo7W9BaoT4w8Zf-28" value="" style="endArrow=none;html=1;rounded=0;exitX=1;exitY=0.5;exitDx=0;exitDy=0;" parent="1" source="wj8l2izo7W9BaoT4w8Zf-3" edge="1">
          <mxGeometry relative="1" as="geometry">
            <mxPoint x="550" y="640" as="sourcePoint" />
            <mxPoint x="700" y="680" as="targetPoint" />
          </mxGeometry>
        </mxCell>
        <mxCell id="wj8l2izo7W9BaoT4w8Zf-30" value="" style="endArrow=none;html=1;rounded=0;exitX=1;exitY=0.5;exitDx=0;exitDy=0;entryX=0;entryY=0.5;entryDx=0;entryDy=0;" parent="1" source="wj8l2izo7W9BaoT4w8Zf-3" target="wj8l2izo7W9BaoT4w8Zf-26" edge="1">
          <mxGeometry relative="1" as="geometry">
            <mxPoint x="620" y="750" as="sourcePoint" />
            <mxPoint x="710" y="690" as="targetPoint" />
          </mxGeometry>
        </mxCell>
        <mxCell id="wj8l2izo7W9BaoT4w8Zf-31" value="" style="endArrow=none;html=1;rounded=0;exitX=1;exitY=0.5;exitDx=0;exitDy=0;entryX=0;entryY=0.5;entryDx=0;entryDy=0;" parent="1" source="wj8l2izo7W9BaoT4w8Zf-3" target="wj8l2izo7W9BaoT4w8Zf-25" edge="1">
          <mxGeometry relative="1" as="geometry">
            <mxPoint x="630" y="760" as="sourcePoint" />
            <mxPoint x="720" y="700" as="targetPoint" />
          </mxGeometry>
        </mxCell>
        <mxCell id="wj8l2izo7W9BaoT4w8Zf-34" value="star" style="ellipse;whiteSpace=wrap;html=1;align=center;" parent="1" vertex="1">
          <mxGeometry x="20" y="890" width="100" height="40" as="geometry" />
        </mxCell>
        <mxCell id="wj8l2izo7W9BaoT4w8Zf-35" value="love" style="ellipse;whiteSpace=wrap;html=1;align=center;" parent="1" vertex="1">
          <mxGeometry x="20" y="790" width="100" height="40" as="geometry" />
        </mxCell>
        <mxCell id="wj8l2izo7W9BaoT4w8Zf-36" value="post_id" style="ellipse;whiteSpace=wrap;html=1;align=center;" parent="1" vertex="1">
          <mxGeometry x="20" y="840" width="100" height="40" as="geometry" />
        </mxCell>
        <mxCell id="wj8l2izo7W9BaoT4w8Zf-38" value="name" style="ellipse;whiteSpace=wrap;html=1;align=center;" parent="1" vertex="1">
          <mxGeometry x="20" y="740" width="100" height="40" as="geometry" />
        </mxCell>
        <mxCell id="wj8l2izo7W9BaoT4w8Zf-43" value="description" style="ellipse;whiteSpace=wrap;html=1;align=center;" parent="1" vertex="1">
          <mxGeometry x="20" y="1160" width="100" height="40" as="geometry" />
        </mxCell>
        <mxCell id="wj8l2izo7W9BaoT4w8Zf-44" value="title" style="ellipse;whiteSpace=wrap;html=1;align=center;" parent="1" vertex="1">
          <mxGeometry x="20" y="1110" width="100" height="40" as="geometry" />
        </mxCell>
        <mxCell id="wj8l2izo7W9BaoT4w8Zf-45" value="picture_ids" style="ellipse;whiteSpace=wrap;html=1;align=center;" parent="1" vertex="1">
          <mxGeometry x="20" y="1210" width="100" height="40" as="geometry" />
        </mxCell>
        <mxCell id="wj8l2izo7W9BaoT4w8Zf-47" value="picture_path" style="ellipse;whiteSpace=wrap;html=1;align=center;" parent="1" vertex="1">
          <mxGeometry x="710" y="1010" width="100" height="40" as="geometry" />
        </mxCell>
        <mxCell id="wj8l2izo7W9BaoT4w8Zf-48" value="Roles" style="whiteSpace=wrap;html=1;align=center;" parent="1" vertex="1">
          <mxGeometry x="540" y="500" width="100" height="40" as="geometry" />
        </mxCell>
        <mxCell id="wj8l2izo7W9BaoT4w8Zf-49" value="view" style="ellipse;whiteSpace=wrap;html=1;align=center;" parent="1" vertex="1">
          <mxGeometry x="700" y="460" width="100" height="40" as="geometry" />
        </mxCell>
        <mxCell id="wj8l2izo7W9BaoT4w8Zf-50" value="operator" style="ellipse;whiteSpace=wrap;html=1;align=center;" parent="1" vertex="1">
          <mxGeometry x="700" y="515" width="100" height="40" as="geometry" />
        </mxCell>
        <mxCell id="wj8l2izo7W9BaoT4w8Zf-51" value="User_Roles" style="rounded=1;arcSize=10;whiteSpace=wrap;html=1;align=center;" parent="1" vertex="1">
          <mxGeometry x="350" y="420" width="100" height="40" as="geometry" />
        </mxCell>
        <mxCell id="wj8l2izo7W9BaoT4w8Zf-52" value="admin" style="ellipse;whiteSpace=wrap;html=1;align=center;" parent="1" vertex="1">
          <mxGeometry x="700" y="570" width="100" height="40" as="geometry" />
        </mxCell>
        <mxCell id="wj8l2izo7W9BaoT4w8Zf-53" value="picture_ids" style="ellipse;whiteSpace=wrap;html=1;align=center;" parent="1" vertex="1">
          <mxGeometry x="20" y="940" width="100" height="40" as="geometry" />
        </mxCell>
        <mxCell id="wj8l2izo7W9BaoT4w8Zf-54" value="label" style="ellipse;whiteSpace=wrap;html=1;align=center;" parent="1" vertex="1">
          <mxGeometry x="20" y="990" width="100" height="40" as="geometry" />
        </mxCell>
        <mxCell id="wj8l2izo7W9BaoT4w8Zf-61" value="id" style="ellipse;whiteSpace=wrap;html=1;align=center;fontStyle=4;" parent="1" vertex="1">
          <mxGeometry x="20" y="1070" width="100" height="40" as="geometry" />
        </mxCell>
        <mxCell id="wj8l2izo7W9BaoT4w8Zf-65" value="" style="edgeStyle=entityRelationEdgeStyle;fontSize=12;html=1;endArrow=ERzeroToMany;endFill=1;startArrow=ERzeroToMany;entryX=0;entryY=0.75;entryDx=0;entryDy=0;exitX=0.5;exitY=0;exitDx=0;exitDy=0;" parent="1" source="wj8l2izo7W9BaoT4w8Zf-1" target="wj8l2izo7W9BaoT4w8Zf-51" edge="1">
          <mxGeometry width="100" height="100" relative="1" as="geometry">
            <mxPoint x="250" y="550" as="sourcePoint" />
            <mxPoint x="390" y="470" as="targetPoint" />
          </mxGeometry>
        </mxCell>
        <mxCell id="wj8l2izo7W9BaoT4w8Zf-67" style="edgeStyle=orthogonalEdgeStyle;rounded=0;orthogonalLoop=1;jettySize=auto;html=1;exitX=0.5;exitY=0;exitDx=0;exitDy=0;entryX=0.64;entryY=-0.1;entryDx=0;entryDy=0;entryPerimeter=0;" parent="1" source="wj8l2izo7W9BaoT4w8Zf-51" target="wj8l2izo7W9BaoT4w8Zf-51" edge="1">
          <mxGeometry relative="1" as="geometry" />
        </mxCell>
        <mxCell id="wj8l2izo7W9BaoT4w8Zf-68" value="" style="edgeStyle=entityRelationEdgeStyle;fontSize=12;html=1;endArrow=ERzeroToMany;endFill=1;startArrow=ERzeroToMany;" parent="1" source="wj8l2izo7W9BaoT4w8Zf-51" edge="1">
          <mxGeometry width="100" height="100" relative="1" as="geometry">
            <mxPoint x="440" y="625" as="sourcePoint" />
            <mxPoint x="540" y="525" as="targetPoint" />
          </mxGeometry>
        </mxCell>
        <mxCell id="wj8l2izo7W9BaoT4w8Zf-72" value="role_id" style="ellipse;whiteSpace=wrap;html=1;align=center;" parent="1" vertex="1">
          <mxGeometry x="400" y="350" width="100" height="40" as="geometry" />
        </mxCell>
        <mxCell id="wj8l2izo7W9BaoT4w8Zf-73" value="user_id" style="ellipse;whiteSpace=wrap;html=1;align=center;" parent="1" vertex="1">
          <mxGeometry x="280" y="350" width="100" height="40" as="geometry" />
        </mxCell>
        <mxCell id="wj8l2izo7W9BaoT4w8Zf-74" value="id" style="ellipse;whiteSpace=wrap;html=1;align=center;fontStyle=4;" parent="1" vertex="1">
          <mxGeometry x="700" y="410" width="100" height="40" as="geometry" />
        </mxCell>
        <mxCell id="wj8l2izo7W9BaoT4w8Zf-82" value="" style="edgeStyle=entityRelationEdgeStyle;fontSize=12;html=1;endArrow=ERzeroToMany;startArrow=ERzeroToOne;exitX=1;exitY=0.5;exitDx=0;exitDy=0;" parent="1" source="wj8l2izo7W9BaoT4w8Zf-2" edge="1">
          <mxGeometry width="100" height="100" relative="1" as="geometry">
            <mxPoint x="430" y="860" as="sourcePoint" />
            <mxPoint x="560" y="1050" as="targetPoint" />
          </mxGeometry>
        </mxCell>
        <mxCell id="wj8l2izo7W9BaoT4w8Zf-85" value="" style="edgeStyle=entityRelationEdgeStyle;fontSize=12;html=1;endArrow=ERmandOne;startArrow=ERmandOne;entryX=0.75;entryY=1;entryDx=0;entryDy=0;exitX=0.5;exitY=0;exitDx=0;exitDy=0;" parent="1" source="wj8l2izo7W9BaoT4w8Zf-23" target="wj8l2izo7W9BaoT4w8Zf-2" edge="1">
          <mxGeometry width="100" height="100" relative="1" as="geometry">
            <mxPoint x="430" y="940" as="sourcePoint" />
            <mxPoint x="530" y="840" as="targetPoint" />
          </mxGeometry>
        </mxCell>
        <mxCell id="wj8l2izo7W9BaoT4w8Zf-89" value="show" style="shape=rhombus;perimeter=rhombusPerimeter;whiteSpace=wrap;html=1;align=center;" parent="1" vertex="1">
          <mxGeometry x="190" y="950" width="120" height="60" as="geometry" />
        </mxCell>
        <mxCell id="wj8l2izo7W9BaoT4w8Zf-97" value="" style="edgeStyle=entityRelationEdgeStyle;fontSize=12;html=1;endArrow=ERzeroToMany;startArrow=ERzeroToOne;entryX=0.5;entryY=0;entryDx=0;entryDy=0;" parent="1" target="wj8l2izo7W9BaoT4w8Zf-2" edge="1">
          <mxGeometry width="100" height="100" relative="1" as="geometry">
            <mxPoint x="240" y="610" as="sourcePoint" />
            <mxPoint x="340" y="510" as="targetPoint" />
          </mxGeometry>
        </mxCell>
        <mxCell id="wj8l2izo7W9BaoT4w8Zf-101" value="Text" style="edgeLabel;html=1;align=center;verticalAlign=middle;resizable=0;points=[];" parent="wj8l2izo7W9BaoT4w8Zf-97" vertex="1" connectable="0">
          <mxGeometry x="-0.2687" y="1" relative="1" as="geometry">
            <mxPoint as="offset" />
          </mxGeometry>
        </mxCell>
        <mxCell id="wj8l2izo7W9BaoT4w8Zf-100" value="" style="edgeStyle=entityRelationEdgeStyle;fontSize=12;html=1;endArrow=ERzeroToMany;startArrow=ERzeroToOne;exitX=1;exitY=0.25;exitDx=0;exitDy=0;entryX=0;entryY=0.5;entryDx=0;entryDy=0;" parent="1" source="wj8l2izo7W9BaoT4w8Zf-2" target="wj8l2izo7W9BaoT4w8Zf-3" edge="1">
          <mxGeometry width="100" height="100" relative="1" as="geometry">
            <mxPoint x="430" y="850" as="sourcePoint" />
            <mxPoint x="530" y="750" as="targetPoint" />
          </mxGeometry>
        </mxCell>
        <mxCell id="wj8l2izo7W9BaoT4w8Zf-99" value="comments" style="shape=rhombus;perimeter=rhombusPerimeter;whiteSpace=wrap;html=1;align=center;" parent="1" vertex="1">
          <mxGeometry x="360" y="740" width="120" height="60" as="geometry" />
        </mxCell>
        <mxCell id="wj8l2izo7W9BaoT4w8Zf-90" value="see/love/star" style="shape=rhombus;perimeter=rhombusPerimeter;whiteSpace=wrap;html=1;align=center;" parent="1" vertex="1">
          <mxGeometry x="210" y="670" width="120" height="60" as="geometry" />
        </mxCell>
        <mxCell id="wj8l2izo7W9BaoT4w8Zf-106" value="register has &amp;nbsp;love/star/comment privilege&amp;nbsp;" style="shape=note;size=20;whiteSpace=wrap;html=1;" parent="1" vertex="1">
          <mxGeometry x="340" y="610" width="260" height="70" as="geometry" />
        </mxCell>
        <mxCell id="wj8l2izo7W9BaoT4w8Zf-107" value="has" style="shape=rhombus;perimeter=rhombusPerimeter;whiteSpace=wrap;html=1;align=center;" parent="1" vertex="1">
          <mxGeometry x="350" y="910" width="120" height="60" as="geometry" />
        </mxCell>
        <mxCell id="wj8l2izo7W9BaoT4w8Zf-108" value="" style="edgeStyle=entityRelationEdgeStyle;fontSize=12;html=1;endArrow=ERzeroToMany;startArrow=ERzeroToOne;exitX=1;exitY=0.5;exitDx=0;exitDy=0;" parent="1" edge="1">
          <mxGeometry width="100" height="100" relative="1" as="geometry">
            <mxPoint x="260" y="1170" as="sourcePoint" />
            <mxPoint x="560" y="1060" as="targetPoint" />
          </mxGeometry>
        </mxCell>
        <mxCell id="wj8l2izo7W9BaoT4w8Zf-109" value="has" style="shape=rhombus;perimeter=rhombusPerimeter;whiteSpace=wrap;html=1;align=center;" parent="1" vertex="1">
          <mxGeometry x="330" y="1100" width="120" height="60" as="geometry" />
        </mxCell>
        <mxCell id="wj8l2izo7W9BaoT4w8Zf-112" value="id" style="ellipse;whiteSpace=wrap;html=1;align=center;fontStyle=4;" parent="1" vertex="1">
          <mxGeometry x="712" y="1070" width="100" height="40" as="geometry" />
        </mxCell>
        <mxCell id="wj8l2izo7W9BaoT4w8Zf-113" value="is_rotation" style="ellipse;whiteSpace=wrap;html=1;align=center;" parent="1" vertex="1">
          <mxGeometry x="712" y="950" width="100" height="40" as="geometry" />
        </mxCell>
        <mxCell id="wj8l2izo7W9BaoT4w8Zf-114" value="is_top" style="ellipse;whiteSpace=wrap;html=1;align=center;" parent="1" vertex="1">
          <mxGeometry x="710" y="900" width="100" height="40" as="geometry" />
        </mxCell>
        <mxCell id="wj8l2izo7W9BaoT4w8Zf-115" value="1.find is_rotation property is Y&lt;br&gt;2.is_top is Y as top picture" style="shape=note;size=20;whiteSpace=wrap;html=1;" parent="1" vertex="1">
          <mxGeometry x="521" y="1150" width="260" height="70" as="geometry" />
        </mxCell>
      </root>
    </mxGraphModel>
  </diagram>
</mxfile>
